# xmcd
#
# Track frame offsets: 
#        150
#        14463
#        27845
#        41878
#        55718
#        69193
#        83928
#        98143
#        112058
#        125943
#        140656
#        155751
#        170173
#        184566
#        197096
#        212711
#        227858
#        242733
#        255055
#        267248
#        279178
#        292628
#        304448
#        316601
#        327916
#
# Disc length: 4529 seconds
#
# Revision: 1
# Processed by: cddbd v1.5.2PL0 Copyright (c) Steve Scherf et al.
# Submitted via: ExactAudioCopy v0.90b4
#
DISCID=6711af19
DTITLE=Calloway, Cab - Volume 2 1935-1940 [CD1]
DYEAR=2003
DGENRE=Big Band/Jazz
TTITLE0=Good Sauce From The Gravy Bowl 
TTITLE1=Keep That Hi-De-Hi In Your Soul 
TTITLE2=Miss Otis Regrets (She's Unable To Lunch Today) 
TTITLE3=I Ain't Got Nobody 
TTITLE4=Nagasaki 
TTITLE5=Baby Won't You Please Come Home 
TTITLE6=I Love To Sing 
TTITLE7=You're The Cure For What Ails Me 
TTITLE8=Save Me, Sister 
TTITLE9=Love Is The Reason 
TTITLE10=When You're Smiling 
TTITLE11=Jes' Natch'ully Lazy 
TTITLE12=Are You In Love With Me Again? 
TTITLE13=Copper Colored Gal 
TTITLE14=Frisco Flo 
TTITLE15=Wedding Of Mr. And Mrs. Swing, The 
TTITLE16=Hi-De-Ho Miracle Man, The 
TTITLE17=Don't Know If I'm Comin' Or Goin' 
TTITLE18=My Gal Mezzanine 
TTITLE19=That Man Is Here Again 
TTITLE20=Reckin' 
TTITLE21=Congo 
TTITLE22=Swing, Swing, Swing 
TTITLE23=Wake Up And Live 
TTITLE24=Manhattan Jam 
EXTD=YEAR: 2003
EXTT0=
EXTT1=
EXTT2=
EXTT3=
EXTT4=
EXTT5=
EXTT6=
EXTT7=
EXTT8=
EXTT9=
EXTT10=
EXTT11=
EXTT12=
EXTT13=
EXTT14=
EXTT15=
EXTT16=
EXTT17=
EXTT18=
EXTT19=
EXTT20=
EXTT21=
EXTT22=
EXTT23=
EXTT24=
PLAYORDER=
